<svg version="1.1" xmlns="http://www.w3.org/2000/svg" viewBox="0 0 398.5 394.5" width="797" height="789">
  <!-- svg-source:excalidraw -->
  
  <defs>
    <style class="style-fonts">
      @font-face {
        font-family: "Virgil";
        src: url("https://excalidraw.com/Virgil.woff2");
      }
      @font-face {
        font-family: "Cascadia";
        src: url("https://excalidraw.com/Cascadia.woff2");
      }
    </style>
    
  </defs>
  <rect x="0" y="0" width="398.5" height="394.5" fill="#ffffff"></rect><g stroke-linecap="round" transform="translate(11 166.5) rotate(0 74.5 46)"><path d="M5.47 6.08 C5.47 6.08, 5.47 6.08, 5.47 6.08 M5.47 6.08 C5.47 6.08, 5.47 6.08, 5.47 6.08 M0.61 17.76 C5.22 13.2, 9.63 9.88, 13.73 2.66 M0.61 17.76 C4.53 13.2, 11.01 6.04, 13.73 2.66 M0.35 24.16 C7.59 15.73, 13.46 6.45, 20.03 1.51 M0.35 24.16 C7.65 14.81, 14.86 7.61, 20.03 1.51 M0.75 29.8 C6.88 23.92, 11.53 17.7, 25.02 1.87 M0.75 29.8 C10.33 19.55, 19.08 8.85, 25.02 1.87 M0.48 36.2 C9.07 27.02, 14.54 20.99, 30.66 1.48 M0.48 36.2 C8.4 26.56, 18.06 17.75, 30.66 1.48 M0.88 41.84 C9.52 30.77, 20.54 20.54, 35.65 1.84 M0.88 41.84 C8.95 30.42, 19.47 21.49, 35.65 1.84 M0.62 48.24 C18.24 28.5, 31.59 13.11, 41.29 1.44 M0.62 48.24 C12.26 35.57, 23.82 20.56, 41.29 1.44 M0.36 54.63 C19.3 35.63, 34.36 15.93, 46.28 1.8 M0.36 54.63 C10.87 41.17, 23.88 27.24, 46.28 1.8 M0.75 60.28 C13.58 44.65, 26.36 30.87, 51.27 2.17 M0.75 60.28 C11.44 47.35, 23.55 35.42, 51.27 2.17 M0.49 66.68 C22.72 41.4, 41.95 17.47, 56.91 1.77 M0.49 66.68 C22.08 42.27, 42.75 17.53, 56.91 1.77 M0.88 72.32 C17.01 57.53, 29.41 41.38, 61.9 2.13 M0.88 72.32 C25.22 46.27, 48.2 18.71, 61.9 2.13 M2.59 76.45 C24.38 49.95, 48.69 21.59, 67.54 1.74 M2.59 76.45 C14.7 61.58, 27.28 47, 67.54 1.74 M4.3 80.59 C23.08 59.88, 43.17 36.92, 72.53 2.1 M4.3 80.59 C18.94 63.06, 35.36 43.83, 72.53 2.1 M5.35 85.47 C21.64 67.02, 37.89 44.96, 78.17 1.7 M5.35 85.47 C28.75 57.88, 52.3 32.26, 78.17 1.7 M8.37 88.1 C37.15 56.98, 65.27 22.36, 83.16 2.06 M8.37 88.1 C32.72 62.05, 56.85 34.32, 83.16 2.06 M11.39 90.72 C41.99 58.82, 69.45 24.9, 88.8 1.67 M11.39 90.72 C30.99 66.69, 51.31 43.08, 88.8 1.67 M15.72 91.84 C40.86 62.46, 65.47 33.31, 93.79 2.03 M15.72 91.84 C44.3 61.09, 72.69 28.67, 93.79 2.03 M20.05 92.95 C48.88 56.04, 80.82 22.31, 99.43 1.63 M20.05 92.95 C49.65 58.99, 77.68 25.53, 99.43 1.63 M25.03 93.31 C48.63 65.04, 68.56 42.15, 104.42 1.99 M25.03 93.31 C53.72 60.3, 82.16 28, 104.42 1.99 M30.02 93.67 C60.43 59.92, 87.28 27.95, 110.06 1.6 M30.02 93.67 C54.61 65.21, 80.18 35.06, 110.06 1.6 M35.66 93.28 C58.55 67.97, 79.2 45.21, 115.05 1.96 M35.66 93.28 C58.86 66.16, 81.37 38.94, 115.05 1.96 M40.65 93.64 C71.54 58.29, 100.51 23.51, 120.69 1.56 M40.65 93.64 C57.82 74.69, 75.25 55.45, 120.69 1.56 M46.29 93.24 C78.19 54.99, 110.81 22.18, 126.99 0.41 M46.29 93.24 C64.04 73.69, 80.22 54.32, 126.99 0.41 M51.28 93.6 C72.43 72.67, 90.42 49.08, 131.32 1.53 M51.28 93.6 C72.69 67.67, 93.7 42.89, 131.32 1.53 M56.92 93.21 C79.76 65.52, 101.97 38.87, 135.65 2.64 M56.92 93.21 C83.93 62.04, 111.65 32.62, 135.65 2.64 M61.91 93.57 C85.9 62.56, 113.5 33.66, 139.98 3.76 M61.91 93.57 C90.15 60.59, 117.52 28.71, 139.98 3.76 M66.9 93.93 C90.64 66.7, 111.73 42.17, 143 6.38 M66.9 93.93 C96.65 59.08, 126.27 26.8, 143 6.38 M72.54 93.53 C96.35 66.33, 119.11 38.24, 146.02 9.01 M72.54 93.53 C91.5 72.81, 108.9 52.1, 146.02 9.01 M77.53 93.89 C94.82 76.03, 109.54 58.37, 147.07 13.9 M77.53 93.89 C93.25 74.76, 108.52 56.9, 147.07 13.9 M83.17 93.5 C103.79 67.86, 123.21 45.51, 148.78 18.03 M83.17 93.5 C105.86 67.71, 127.73 41.22, 148.78 18.03 M88.16 93.86 C114.56 65.46, 138.41 38.79, 149.17 23.67 M88.16 93.86 C101.03 77.57, 115.75 61.32, 149.17 23.67 M93.8 93.47 C107.75 75.56, 125.1 55.94, 148.91 30.07 M93.8 93.47 C116.05 69.09, 137.54 42.34, 148.91 30.07 M98.79 93.83 C110.68 80.9, 120.86 69.16, 149.31 35.71 M98.79 93.83 C114.57 74.46, 130.45 56.36, 149.31 35.71 M104.43 93.43 C116.2 81.19, 124.81 72.86, 149.04 42.11 M104.43 93.43 C119.76 75.5, 136.07 58, 149.04 42.11 M109.42 93.79 C119.59 84.83, 129.34 70.65, 149.44 47.75 M109.42 93.79 C122.86 78.94, 135.31 65.43, 149.44 47.75 M115.06 93.4 C127.72 79.4, 142.15 63.83, 149.18 54.15 M115.06 93.4 C125.91 82.33, 136.1 70.94, 149.18 54.15 M120.05 93.76 C126.81 84.97, 134.88 79.09, 148.92 60.55 M120.05 93.76 C125.77 86.51, 133 81.02, 148.92 60.55 M126.35 92.61 C134 84.56, 138.19 80.58, 149.31 66.19 M126.35 92.61 C134.85 83.06, 143.1 75.26, 149.31 66.19 M133.3 90.7 C137.89 84.49, 147.12 76.84, 151.02 70.33 M133.3 90.7 C137.44 85.44, 142.9 80.93, 151.02 70.33 M140.26 88.8 C142.86 86.22, 143.31 84.41, 148.79 78.99 M140.26 88.8 C142.99 85.75, 146.03 81.8, 148.79 78.99" stroke="#e9ecef" stroke-width="0.5" fill="none"></path><path d="M23 0 M23 0 C62.66 2.56, 102.66 0.06, 126 0 M23 0 C52.01 0.73, 81.07 0.36, 126 0 M126 0 C140.57 -0.36, 147.71 6.39, 149 23 M126 0 C142.24 2.21, 151.22 8.86, 149 23 M149 23 C146.96 41.2, 147.31 58.2, 149 69 M149 23 C148.26 36.07, 148.65 46.85, 149 69 M149 69 C148.05 83.49, 139.65 91.66, 126 92 M149 69 C148.33 82.14, 139.79 91.2, 126 92 M126 92 C92.39 90.84, 62.31 90.44, 23 92 M126 92 C101.96 92.03, 79.5 93.43, 23 92 M23 92 C8.44 90.55, 0.71 84.16, 0 69 M23 92 C7.56 93.84, 0.1 85.72, 0 69 M0 69 C0.82 49.67, -1.06 33.93, 0 23 M0 69 C0.08 55.54, 0.25 44.27, 0 23 M0 23 C0.95 7.64, 6.26 0.85, 23 0 M0 23 C-1.94 9.27, 6.29 0.97, 23 0" stroke="#1e1e1e" stroke-width="1" fill="none"></path></g><g transform="translate(52.6875 193.3) rotate(0 32.8125 19.19999999999999)"><text x="32.8125" y="0" font-family="Cascadia, Segoe UI Emoji" font-size="16px" fill="#1e1e1e" text-anchor="middle" style="white-space: pre;" direction="ltr" dominant-baseline="text-before-edge">TWAP</text><text x="32.8125" y="19.2" font-family="Cascadia, Segoe UI Emoji" font-size="16px" fill="#1e1e1e" text-anchor="middle" style="white-space: pre;" direction="ltr" dominant-baseline="text-before-edge">program</text></g><g stroke-linecap="round" transform="translate(239.5 163.5) rotate(0 74.5 46)"><path d="M5.47 6.08 C5.47 6.08, 5.47 6.08, 5.47 6.08 M5.47 6.08 C5.47 6.08, 5.47 6.08, 5.47 6.08 M0.61 17.76 C6.89 13.28, 8.62 7.72, 13.73 2.66 M0.61 17.76 C3.76 12.72, 7.13 10.36, 13.73 2.66 M0.35 24.16 C8.15 17.25, 14.65 11.28, 20.03 1.51 M0.35 24.16 C6.56 16.32, 13.82 9.52, 20.03 1.51 M0.75 29.8 C8.88 20.77, 15.15 12.17, 25.02 1.87 M0.75 29.8 C8.13 20.6, 16.94 11.01, 25.02 1.87 M0.48 36.2 C11.27 21.67, 25.02 11.67, 30.66 1.48 M0.48 36.2 C6.97 27.62, 13.35 20.14, 30.66 1.48 M0.88 41.84 C11.57 32.7, 20.5 21.26, 35.65 1.84 M0.88 41.84 C11.76 31.05, 21.27 18.94, 35.65 1.84 M0.62 48.24 C8.49 38.9, 19.5 28.26, 41.29 1.44 M0.62 48.24 C14.73 32.06, 28.85 15.69, 41.29 1.44 M0.36 54.63 C15.31 40.64, 26.53 20.58, 46.28 1.8 M0.36 54.63 C13.79 38.39, 28.29 22.66, 46.28 1.8 M0.75 60.28 C13.48 43.29, 29.13 27.87, 51.27 2.17 M0.75 60.28 C18.77 40.16, 34.14 21.68, 51.27 2.17 M0.49 66.68 C16 49.03, 31.77 33.28, 56.91 1.77 M0.49 66.68 C12.16 52.35, 24.34 38.8, 56.91 1.77 M0.88 72.32 C13.06 59.69, 23.87 42.76, 61.9 2.13 M0.88 72.32 C21.05 47.38, 41.84 23.73, 61.9 2.13 M2.59 76.45 C25.86 45.42, 53.13 16.42, 67.54 1.74 M2.59 76.45 C24.14 53.82, 44.82 29.19, 67.54 1.74 M4.3 80.59 C25.01 59.39, 45.16 34.34, 72.53 2.1 M4.3 80.59 C23.94 58.64, 41.1 37.14, 72.53 2.1 M5.35 85.47 C27.69 62.13, 47.27 40.61, 78.17 1.7 M5.35 85.47 C22.52 65.3, 39.81 44.45, 78.17 1.7 M8.37 88.1 C25.33 69.14, 41.69 47.93, 83.16 2.06 M8.37 88.1 C38.31 53.11, 67.86 20.79, 83.16 2.06 M11.39 90.72 C36.51 59.8, 60.21 31.81, 88.8 1.67 M11.39 90.72 C36.5 61.29, 61.48 32.63, 88.8 1.67 M15.72 91.84 C44.75 58.74, 70.57 27.39, 93.79 2.03 M15.72 91.84 C39.84 64.71, 61.16 39.78, 93.79 2.03 M20.05 92.95 C41.42 68.53, 59.98 48.3, 99.43 1.63 M20.05 92.95 C48.81 61.25, 77.86 27.93, 99.43 1.63 M25.03 93.31 C45.78 72.95, 61.34 48.06, 104.42 1.99 M25.03 93.31 C53.44 60.66, 80.56 28.17, 104.42 1.99 M30.02 93.67 C48.8 74.1, 68.65 50.48, 110.06 1.6 M30.02 93.67 C52.69 67.35, 74.92 42.37, 110.06 1.6 M35.66 93.28 C55.58 70.3, 76.79 44.21, 115.05 1.96 M35.66 93.28 C56.52 69.17, 77.83 45.45, 115.05 1.96 M40.65 93.64 C69.72 61.37, 96.51 27.16, 120.69 1.56 M40.65 93.64 C65.34 67.63, 88.21 39.22, 120.69 1.56 M46.29 93.24 C64.02 73.28, 83.12 48.7, 126.99 0.41 M46.29 93.24 C69.1 66.67, 92.44 41.01, 126.99 0.41 M51.28 93.6 C78.21 60.53, 103.69 30.07, 131.32 1.53 M51.28 93.6 C77.75 62.14, 104.53 31.29, 131.32 1.53 M56.92 93.21 C88.15 58.57, 118.56 22.25, 135.65 2.64 M56.92 93.21 C87.78 56.87, 119.91 22.04, 135.65 2.64 M61.91 93.57 C76.27 74.7, 92.9 57.51, 139.98 3.76 M61.91 93.57 C91.94 60.35, 120.07 25.99, 139.98 3.76 M66.9 93.93 C98.51 60.03, 127.93 24.97, 143 6.38 M66.9 93.93 C94.3 60.89, 122.38 27.7, 143 6.38 M72.54 93.53 C91.57 72.04, 107.67 50.8, 146.02 9.01 M72.54 93.53 C99.68 61.5, 126.71 31.17, 146.02 9.01 M77.53 93.89 C104.61 64.12, 128.69 34.3, 147.07 13.9 M77.53 93.89 C97.91 70.43, 117.7 46.19, 147.07 13.9 M83.17 93.5 C97.87 76.12, 113.39 60.64, 148.78 18.03 M83.17 93.5 C104.72 69.76, 124.63 46.47, 148.78 18.03 M88.16 93.86 C112.1 65.73, 134.41 40.37, 149.17 23.67 M88.16 93.86 C101.33 78.92, 116.02 62.35, 149.17 23.67 M93.8 93.47 C116.41 70.78, 137.64 46.72, 148.91 30.07 M93.8 93.47 C109.86 74.8, 126.78 55.86, 148.91 30.07 M98.79 93.83 C109.04 82.78, 121.45 66.95, 149.31 35.71 M98.79 93.83 C116.76 73.73, 134.36 53.29, 149.31 35.71 M104.43 93.43 C115.31 81.32, 129.39 65.52, 149.04 42.11 M104.43 93.43 C120.53 75.87, 134.62 58.7, 149.04 42.11 M109.42 93.79 C121.29 83.3, 130.22 72.8, 149.44 47.75 M109.42 93.79 C118.34 83.54, 126.14 73.68, 149.44 47.75 M115.06 93.4 C121.06 85.69, 131.57 75.55, 149.18 54.15 M115.06 93.4 C127.99 79.25, 138.97 64.19, 149.18 54.15 M120.05 93.76 C125.63 86.96, 134.14 78.79, 148.92 60.55 M120.05 93.76 C129.45 83.4, 137.39 74.56, 148.92 60.55 M126.35 92.61 C134.66 82.69, 144.26 72.9, 149.31 66.19 M126.35 92.61 C134.98 84.08, 141.47 74.42, 149.31 66.19 M133.3 90.7 C138.63 86.62, 142.5 81.28, 151.02 70.33 M133.3 90.7 C136.92 85, 142.65 79.71, 151.02 70.33 M140.26 88.8 C142.12 87.34, 145.23 83.33, 148.79 78.99 M140.26 88.8 C144.18 85, 147.31 81.21, 148.79 78.99" stroke="#b2f2bb" stroke-width="0.5" fill="none"></path><path d="M23 0 M23 0 C58.76 -0.96, 91.57 1.57, 126 0 M23 0 C49.57 -0.27, 77.71 0.42, 126 0 M126 0 C141.54 -0.65, 150.59 6.35, 149 23 M126 0 C143.02 1.26, 147.55 7.85, 149 23 M149 23 C148.14 38.56, 147.61 52.97, 149 69 M149 23 C148.46 36.71, 149.52 51.09, 149 69 M149 69 C147.65 83.42, 141.06 90.52, 126 92 M149 69 C147.91 85.64, 139.19 92.53, 126 92 M126 92 C102.05 90.1, 73.47 91.54, 23 92 M126 92 C96.17 91.6, 65.52 90.81, 23 92 M23 92 C6.67 92.65, 0.51 85.85, 0 69 M23 92 C7.64 93.44, -1.18 83.08, 0 69 M0 69 C1.53 52.28, -1.66 31.57, 0 23 M0 69 C-0.43 57.59, 0.59 47.77, 0 23 M0 23 C0.12 8.93, 7.02 0.18, 23 0 M0 23 C-2.25 8.12, 9.08 -2.2, 23 0" stroke="#1e1e1e" stroke-width="1" fill="none"></path></g><g transform="translate(262.4375 180.7) rotate(0 51.5625 28.799999999999983)"><text x="51.5625" y="0" font-family="Cascadia, Segoe UI Emoji" font-size="16px" fill="#1e1e1e" text-anchor="middle" style="white-space: pre;" direction="ltr" dominant-baseline="text-before-edge">conditional</text><text x="51.5625" y="19.2" font-family="Cascadia, Segoe UI Emoji" font-size="16px" fill="#1e1e1e" text-anchor="middle" style="white-space: pre;" direction="ltr" dominant-baseline="text-before-edge">vault</text><text x="51.5625" y="38.4" font-family="Cascadia, Segoe UI Emoji" font-size="16px" fill="#1e1e1e" text-anchor="middle" style="white-space: pre;" direction="ltr" dominant-baseline="text-before-edge">program</text></g><g stroke-linecap="round" transform="translate(121.5 10) rotate(0 74.5 46)"><path d="M5.47 6.08 C5.47 6.08, 5.47 6.08, 5.47 6.08 M5.47 6.08 C5.47 6.08, 5.47 6.08, 5.47 6.08 M0.61 17.76 C4.12 12.09, 7.14 10.47, 13.73 2.66 M0.61 17.76 C2.5 14.01, 6.68 10.99, 13.73 2.66 M0.35 24.16 C4.16 18.66, 9.95 15.14, 20.03 1.51 M0.35 24.16 C8.42 15.78, 16.44 6.8, 20.03 1.51 M0.75 29.8 C11.47 20.44, 18.82 11.37, 25.02 1.87 M0.75 29.8 C9.04 20.2, 19.1 9.64, 25.02 1.87 M0.48 36.2 C7.89 28.63, 14.65 18.89, 30.66 1.48 M0.48 36.2 C5.56 29.49, 13.2 21.68, 30.66 1.48 M0.88 41.84 C15.27 28.59, 24.53 12.87, 35.65 1.84 M0.88 41.84 C14.87 26.51, 28.04 11, 35.65 1.84 M0.62 48.24 C16.12 30.27, 30.76 12.9, 41.29 1.44 M0.62 48.24 C14.29 32.03, 30.24 13.92, 41.29 1.44 M0.36 54.63 C14.07 41.98, 23.25 28.32, 46.28 1.8 M0.36 54.63 C14.14 38.47, 27.5 23.63, 46.28 1.8 M0.75 60.28 C18.47 41.86, 34.02 22.55, 51.27 2.17 M0.75 60.28 C12.25 46.22, 24.31 34.67, 51.27 2.17 M0.49 66.68 C20.44 41.4, 42.78 16.63, 56.91 1.77 M0.49 66.68 C22.94 41.06, 45.34 14.39, 56.91 1.77 M0.88 72.32 C17.74 55.47, 32.83 37.61, 61.9 2.13 M0.88 72.32 C16.02 56.53, 29.55 40.24, 61.9 2.13 M2.59 76.45 C17.02 60.22, 30.95 46.13, 67.54 1.74 M2.59 76.45 C19.91 56.81, 36.55 37.48, 67.54 1.74 M4.3 80.59 C26.91 56.83, 47.4 30.98, 72.53 2.1 M4.3 80.59 C30.86 50.37, 57.23 19.64, 72.53 2.1 M5.35 85.47 C32.01 54.02, 61.66 24.37, 78.17 1.7 M5.35 85.47 C33.79 52.58, 63.58 19.12, 78.17 1.7 M8.37 88.1 C40.07 53.13, 65.74 20.06, 83.16 2.06 M8.37 88.1 C37.28 55.14, 66.89 20.27, 83.16 2.06 M11.39 90.72 C28.62 69.48, 49.73 48.91, 88.8 1.67 M11.39 90.72 C33.36 64.87, 54.98 39.79, 88.8 1.67 M15.72 91.84 C38.28 65.46, 57.5 40.04, 93.79 2.03 M15.72 91.84 C38.77 64.48, 62.65 37.08, 93.79 2.03 M20.05 92.95 C45.62 61.64, 73.93 28.42, 99.43 1.63 M20.05 92.95 C36.24 73.28, 54.52 53.92, 99.43 1.63 M25.03 93.31 C47.27 67.9, 71.06 42.48, 104.42 1.99 M25.03 93.31 C45.39 70.4, 67.72 45.34, 104.42 1.99 M30.02 93.67 C59.46 61.78, 86.41 30.25, 110.06 1.6 M30.02 93.67 C61.99 55.9, 92.22 20.52, 110.06 1.6 M35.66 93.28 C62.04 61.28, 92.78 29.04, 115.05 1.96 M35.66 93.28 C65.18 56.77, 96.39 21.26, 115.05 1.96 M40.65 93.64 C64.61 66.35, 86.63 41.04, 120.69 1.56 M40.65 93.64 C64.36 69.18, 86.15 42.45, 120.69 1.56 M46.29 93.24 C65.32 75.27, 79.69 54.17, 126.99 0.41 M46.29 93.24 C70.2 65.66, 92.07 38.4, 126.99 0.41 M51.28 93.6 C79.18 65.18, 100.88 36.45, 131.32 1.53 M51.28 93.6 C69.95 71.34, 89.73 48.75, 131.32 1.53 M56.92 93.21 C74.2 73.24, 88.08 57.7, 135.65 2.64 M56.92 93.21 C82.25 63.36, 107.97 35.53, 135.65 2.64 M61.91 93.57 C89.76 59.8, 117.83 28.43, 139.98 3.76 M61.91 93.57 C83.5 68.85, 104.44 45.38, 139.98 3.76 M66.9 93.93 C84.98 73.52, 105.99 51.06, 143 6.38 M66.9 93.93 C91.41 63.91, 116.5 36.2, 143 6.38 M72.54 93.53 C95.3 69.88, 114.38 44.35, 146.02 9.01 M72.54 93.53 C93.18 69.14, 116.02 43.29, 146.02 9.01 M77.53 93.89 C97.72 70.65, 114.63 52.08, 147.07 13.9 M77.53 93.89 C103.66 65.09, 128.57 35.27, 147.07 13.9 M83.17 93.5 C104.33 69.59, 126.55 43.92, 148.78 18.03 M83.17 93.5 C99.94 73.85, 116.35 53.85, 148.78 18.03 M88.16 93.86 C101.57 77.75, 114.33 63.3, 149.17 23.67 M88.16 93.86 C107.89 72.97, 126 50.85, 149.17 23.67 M93.8 93.47 C115.1 69.06, 138.95 43.53, 148.91 30.07 M93.8 93.47 C107.11 76.87, 121.66 61.28, 148.91 30.07 M98.79 93.83 C117.55 71.16, 138.71 49.09, 149.31 35.71 M98.79 93.83 C110.18 80.16, 122.63 66.96, 149.31 35.71 M104.43 93.43 C114.16 78.58, 129.04 68.2, 149.04 42.11 M104.43 93.43 C120.45 73.87, 137.81 54.54, 149.04 42.11 M109.42 93.79 C122.4 80.19, 132.06 67.09, 149.44 47.75 M109.42 93.79 C121.52 80.2, 134.32 65.3, 149.44 47.75 M115.06 93.4 C127.19 79.61, 138.48 67.89, 149.18 54.15 M115.06 93.4 C124.11 82.87, 132.29 72.97, 149.18 54.15 M120.05 93.76 C128.63 82.71, 138.78 72.29, 148.92 60.55 M120.05 93.76 C126.74 85.73, 135.41 75.05, 148.92 60.55 M126.35 92.61 C132.56 84.19, 139.27 79.17, 149.31 66.19 M126.35 92.61 C133.51 82.67, 143.14 74.12, 149.31 66.19 M133.3 90.7 C137.19 85.02, 143.97 79.33, 151.02 70.33 M133.3 90.7 C138.2 84.23, 144.86 77.98, 151.02 70.33 M140.26 88.8 C140.95 86.07, 143.8 84.21, 148.79 78.99 M140.26 88.8 C141.91 85.78, 143.91 83.98, 148.79 78.99" stroke="#ffec99" stroke-width="0.5" fill="none"></path><path d="M23 0 M23 0 C49.25 0.73, 77.58 -0.38, 126 0 M23 0 C46.17 -0.36, 69.12 -0.45, 126 0 M126 0 C140.12 0.44, 147.51 9.34, 149 23 M126 0 C141.88 1.12, 149.11 8.7, 149 23 M149 23 C147.05 36.94, 149.93 51.83, 149 69 M149 23 C149.54 35.83, 149.09 47.23, 149 69 M149 69 C147.19 86.26, 141.56 91.59, 126 92 M149 69 C149.06 84.39, 139.56 93.62, 126 92 M126 92 C89.79 91.03, 58.87 90.4, 23 92 M126 92 C103.74 91.95, 80.9 93.62, 23 92 M23 92 C8.44 93.53, 0.11 84.94, 0 69 M23 92 C7.09 91.38, -1.58 83.43, 0 69 M0 69 C0.73 55.9, 1.75 38.92, 0 23 M0 69 C0.48 59.44, 0.59 49.12, 0 23 M0 23 C1.8 7.6, 6.74 -0.6, 23 0 M0 23 C0.63 7.36, 8.11 -1.78, 23 0" stroke="#1e1e1e" stroke-width="1" fill="none"></path></g><g transform="translate(158.5 36.80000000000001) rotate(0 37.5 19.200000000000003)"><text x="37.5" y="0" font-family="Cascadia, Segoe UI Emoji" font-size="16px" fill="#1e1e1e" text-anchor="middle" style="white-space: pre;" direction="ltr" dominant-baseline="text-before-edge">autocrat</text><text x="37.5" y="19.2" font-family="Cascadia, Segoe UI Emoji" font-size="16px" fill="#1e1e1e" text-anchor="middle" style="white-space: pre;" direction="ltr" dominant-baseline="text-before-edge">program</text></g><g stroke-linecap="round" transform="translate(10 292.5) rotate(0 74.5 46)"><path d="M23 0 M23 0 C52.94 -0.77, 83.42 0.95, 126 0 M23 0 C53.04 0.18, 81.98 0.47, 126 0 M126 0 C142.02 -1.21, 149.44 6.18, 149 23 M126 0 C143.25 0.54, 150.12 7.78, 149 23 M149 23 C148.29 37.16, 147.86 55.89, 149 69 M149 23 C148.49 33.35, 149.38 42.98, 149 69 M149 69 C148.24 82.52, 143.26 92.23, 126 92 M149 69 C148.53 84.4, 141.39 90.22, 126 92 M126 92 C88.48 89.79, 48.41 93.39, 23 92 M126 92 C105.76 91.8, 83.3 91.74, 23 92 M23 92 C9.42 92.77, 1.53 84.44, 0 69 M23 92 C8.36 91.42, -0.62 82.75, 0 69 M0 69 C0.8 57.38, 1.49 46.41, 0 23 M0 69 C1.13 56.94, 0.93 44.93, 0 23 M0 23 C0.73 9.46, 7.6 -0.93, 23 0 M0 23 C-0.69 8.3, 7.36 0.45, 23 0" stroke="#1e1e1e" stroke-width="1" fill="none"></path></g><g transform="translate(32.9375 328.9) rotate(0 51.5625 9.599999999999994)"><text x="51.5625" y="0" font-family="Cascadia, Segoe UI Emoji" font-size="16px" fill="#1e1e1e" text-anchor="middle" style="white-space: pre;" direction="ltr" dominant-baseline="text-before-edge">OpenBook V2</text></g><g stroke-linecap="round"><g transform="translate(120.5 165.5) rotate(0 20.792494408981838 -31.505147539451713)"><path d="M1.02 1.13 C7.81 -9.64, 34.92 -53.38, 41.49 -64.14 M0.09 0.67 C6.74 -9.99, 34.47 -52.48, 41.07 -62.93" stroke="#1e1e1e" stroke-width="1" fill="none"></path></g></g><mask></mask><g stroke-linecap="round"><g transform="translate(234.5 101.5) rotate(0 24.942604828970502 30.58544169776141)"><path d="M1.07 -0.97 C9.19 9.39, 41.86 51.68, 49.71 62.14 M0.17 1.13 C8.11 11.2, 40.73 50.83, 49.14 60.62" stroke="#1e1e1e" stroke-width="1" fill="none"></path></g></g><mask></mask><g stroke-linecap="round"><g transform="translate(83.5 292.5) rotate(0 0.49738171984151336 -15.888801172273219)"><path d="M0.97 -0.53 C1.02 -6.16, 0.8 -27.98, 0.57 -33.59 M0.02 1.81 C-0.01 -3.69, 0.37 -26.47, 0.18 -32.36" stroke="#1e1e1e" stroke-width="1" fill="none"></path></g></g><mask></mask></svg>